<svg width="147.322" height="10.528" viewBox="0 0 147.322 10.528" xmlns="http://www.w3.org/2000/svg"><g id="svgGroup" stroke-linecap="round" fill-rule="evenodd" font-size="12pt" stroke="#22272e" stroke-width="0.25mm" fill="#22272e" style="stroke:#22272e;stroke-width:0.25mm;fill:#22272e"><path d="M 110.6 10.36 L 109.34 10.36 L 109.34 0.56 L 111.202 0.56 L 113.918 6.762 L 116.592 0.56 L 118.496 0.56 L 118.496 10.36 L 117.166 10.36 L 117.166 2.254 L 114.548 8.148 L 113.232 8.148 L 110.6 2.254 L 110.6 10.36 Z M 103.74 9.66 L 102.872 10.5 L 99.106 6.622 L 99.106 10.36 L 97.846 10.36 L 97.846 0 L 99.106 0 L 99.106 5.922 L 102.396 2.94 L 103.124 3.738 L 100.31 6.23 L 103.74 9.66 Z M 47.18 7.812 L 47.18 3.08 L 48.44 3.08 L 48.44 7.644 A 3.217 3.217 0 0 0 48.476 8.139 Q 48.516 8.397 48.602 8.606 A 1.419 1.419 0 0 0 48.804 8.953 A 1.177 1.177 0 0 0 49.52 9.376 A 1.793 1.793 0 0 0 49.868 9.408 Q 50.442 9.408 50.981 9.177 Q 51.52 8.946 51.94 8.554 L 51.94 3.08 L 53.2 3.08 L 53.2 8.47 A 2.184 2.184 0 0 0 53.214 8.73 Q 53.261 9.116 53.459 9.261 Q 53.718 9.45 54.026 9.45 L 53.76 10.43 A 2.47 2.47 0 0 1 53.171 10.365 Q 52.383 10.171 52.151 9.397 A 1.733 1.733 0 0 1 52.15 9.394 Q 51.66 9.898 51.016 10.213 Q 50.372 10.528 49.63 10.528 Q 49 10.528 48.44 10.262 A 2.022 2.022 0 0 1 47.669 9.613 A 2.557 2.557 0 0 1 47.53 9.401 Q 47.256 8.935 47.196 8.224 A 4.952 4.952 0 0 1 47.18 7.812 Z M 28.252 9.772 L 28.784 8.722 Q 29.148 9.03 29.701 9.233 Q 30.254 9.436 30.884 9.436 A 3.796 3.796 0 0 0 31.316 9.413 Q 31.762 9.362 32.037 9.196 A 1.084 1.084 0 0 0 32.067 9.177 A 1.043 1.043 0 0 0 32.282 8.996 A 0.707 0.707 0 0 0 32.466 8.512 A 0.997 0.997 0 0 0 32.422 8.211 A 0.87 0.87 0 0 0 32.319 7.994 A 0.894 0.894 0 0 0 32.189 7.841 Q 32.037 7.695 31.78 7.553 Q 31.388 7.336 30.646 7.084 A 6.526 6.526 0 0 1 30.03 6.84 Q 29.734 6.704 29.5 6.551 A 2.707 2.707 0 0 1 29.113 6.251 A 1.585 1.585 0 0 1 28.652 5.412 A 2.351 2.351 0 0 1 28.602 4.914 A 1.697 1.697 0 0 1 29.155 3.652 A 2.445 2.445 0 0 1 29.337 3.493 A 2.487 2.487 0 0 1 30.182 3.066 Q 30.703 2.912 31.374 2.912 Q 32.062 2.912 32.602 3.054 A 3.512 3.512 0 0 1 32.62 3.059 A 5.428 5.428 0 0 1 33.199 3.249 A 4.355 4.355 0 0 1 33.6 3.43 L 33.25 4.466 A 3.434 3.434 0 0 0 32.736 4.219 A 4.227 4.227 0 0 0 32.389 4.102 A 3.503 3.503 0 0 0 31.761 3.983 A 4.457 4.457 0 0 0 31.318 3.962 A 2.888 2.888 0 0 0 30.907 3.989 Q 30.475 4.052 30.212 4.256 Q 29.834 4.55 29.834 4.9 A 0.689 0.689 0 0 0 30.043 5.397 A 0.992 0.992 0 0 0 30.128 5.474 Q 30.422 5.712 31.276 5.992 A 9.485 9.485 0 0 1 31.985 6.258 Q 32.814 6.61 33.208 7.014 A 1.904 1.904 0 0 1 33.752 8.308 A 2.505 2.505 0 0 1 33.754 8.414 A 1.942 1.942 0 0 1 33.605 9.186 Q 33.423 9.611 33.019 9.92 A 2.327 2.327 0 0 1 32.963 9.961 Q 32.299 10.437 31.257 10.513 A 5.659 5.659 0 0 1 30.842 10.528 A 5.599 5.599 0 0 1 30.021 10.47 A 4.333 4.333 0 0 1 29.351 10.318 A 4.324 4.324 0 0 1 28.813 10.11 Q 28.536 9.98 28.315 9.819 A 2.552 2.552 0 0 1 28.252 9.772 Z M 55.076 9.772 L 55.608 8.722 Q 55.972 9.03 56.525 9.233 Q 57.078 9.436 57.708 9.436 A 3.796 3.796 0 0 0 58.14 9.413 Q 58.586 9.362 58.861 9.196 A 1.084 1.084 0 0 0 58.891 9.177 A 1.043 1.043 0 0 0 59.106 8.996 A 0.707 0.707 0 0 0 59.29 8.512 A 0.997 0.997 0 0 0 59.246 8.211 A 0.87 0.87 0 0 0 59.143 7.994 A 0.894 0.894 0 0 0 59.013 7.841 Q 58.861 7.695 58.604 7.553 Q 58.212 7.336 57.47 7.084 A 6.526 6.526 0 0 1 56.854 6.84 Q 56.558 6.704 56.324 6.551 A 2.707 2.707 0 0 1 55.937 6.251 A 1.585 1.585 0 0 1 55.476 5.412 A 2.351 2.351 0 0 1 55.426 4.914 A 1.697 1.697 0 0 1 55.979 3.652 A 2.445 2.445 0 0 1 56.161 3.493 A 2.487 2.487 0 0 1 57.006 3.066 Q 57.527 2.912 58.198 2.912 Q 58.886 2.912 59.426 3.054 A 3.512 3.512 0 0 1 59.444 3.059 A 5.428 5.428 0 0 1 60.023 3.249 A 4.355 4.355 0 0 1 60.424 3.43 L 60.074 4.466 A 3.434 3.434 0 0 0 59.56 4.219 A 4.227 4.227 0 0 0 59.213 4.102 A 3.503 3.503 0 0 0 58.585 3.983 A 4.457 4.457 0 0 0 58.142 3.962 A 2.888 2.888 0 0 0 57.731 3.989 Q 57.299 4.052 57.036 4.256 Q 56.658 4.55 56.658 4.9 A 0.689 0.689 0 0 0 56.867 5.397 A 0.992 0.992 0 0 0 56.952 5.474 Q 57.246 5.712 58.1 5.992 A 9.485 9.485 0 0 1 58.809 6.258 Q 59.638 6.61 60.032 7.014 A 1.904 1.904 0 0 1 60.576 8.308 A 2.505 2.505 0 0 1 60.578 8.414 A 1.942 1.942 0 0 1 60.429 9.186 Q 60.247 9.611 59.843 9.92 A 2.327 2.327 0 0 1 59.787 9.961 Q 59.123 10.437 58.081 10.513 A 5.659 5.659 0 0 1 57.666 10.528 A 5.599 5.599 0 0 1 56.845 10.47 A 4.333 4.333 0 0 1 56.175 10.318 A 4.324 4.324 0 0 1 55.637 10.11 Q 55.36 9.98 55.139 9.819 A 2.552 2.552 0 0 1 55.076 9.772 Z M 134.064 3.808 L 134.064 0 L 135.324 0 L 135.324 8.596 A 1.701 1.701 0 0 0 135.338 8.825 Q 135.374 9.088 135.501 9.222 A 0.415 0.415 0 0 0 135.583 9.289 Q 135.842 9.45 136.15 9.45 L 135.884 10.43 Q 134.554 10.43 134.26 9.366 A 2.728 2.728 0 0 1 133.864 9.807 Q 133.665 9.987 133.415 10.153 A 4.548 4.548 0 0 1 133.399 10.164 Q 132.846 10.528 132.006 10.528 Q 131.11 10.528 130.368 10.066 A 3.177 3.177 0 0 1 129.313 8.975 A 3.867 3.867 0 0 1 129.192 8.757 A 3.855 3.855 0 0 1 128.83 7.645 A 5.211 5.211 0 0 1 128.758 6.762 A 4.752 4.752 0 0 1 128.882 5.654 A 3.915 3.915 0 0 1 129.199 4.788 A 3.821 3.821 0 0 1 129.846 3.865 A 3.386 3.386 0 0 1 130.375 3.416 Q 131.11 2.912 131.992 2.912 Q 132.72 2.912 133.245 3.206 A 4.808 4.808 0 0 1 133.606 3.428 Q 133.88 3.615 134.064 3.808 Z M 18.522 7.238 L 13.426 7.238 A 3.372 3.372 0 0 0 13.585 7.941 Q 13.752 8.417 14.062 8.753 A 2.097 2.097 0 0 0 14.14 8.834 A 1.98 1.98 0 0 0 15.207 9.368 A 2.803 2.803 0 0 0 15.694 9.408 A 5.142 5.142 0 0 0 16.293 9.375 A 3.861 3.861 0 0 0 16.828 9.275 Q 17.332 9.142 17.794 8.932 L 18.088 10.01 A 5.708 5.708 0 0 1 17.481 10.238 A 7.261 7.261 0 0 1 16.954 10.381 A 5.448 5.448 0 0 1 16.241 10.496 A 7.284 7.284 0 0 1 15.54 10.528 A 3.964 3.964 0 0 1 14.456 10.387 A 2.955 2.955 0 0 1 13.055 9.527 A 3.293 3.293 0 0 1 12.326 8.191 Q 12.185 7.702 12.15 7.119 A 6.597 6.597 0 0 1 12.138 6.72 A 4.95 4.95 0 0 1 12.255 5.625 A 4.038 4.038 0 0 1 12.551 4.767 Q 12.964 3.906 13.706 3.409 A 2.947 2.947 0 0 1 15.142 2.923 A 3.669 3.669 0 0 1 15.428 2.912 A 3.997 3.997 0 0 1 16.194 2.981 Q 16.662 3.073 17.036 3.284 A 2.41 2.41 0 0 1 17.171 3.367 Q 17.864 3.822 18.214 4.592 Q 18.564 5.362 18.564 6.286 Q 18.564 6.776 18.522 7.238 Z M 41.328 7.238 L 36.232 7.238 A 3.372 3.372 0 0 0 36.391 7.941 Q 36.558 8.417 36.868 8.753 A 2.097 2.097 0 0 0 36.946 8.834 A 1.98 1.98 0 0 0 38.013 9.368 A 2.803 2.803 0 0 0 38.5 9.408 A 5.142 5.142 0 0 0 39.099 9.375 A 3.861 3.861 0 0 0 39.634 9.275 Q 40.138 9.142 40.6 8.932 L 40.894 10.01 A 5.708 5.708 0 0 1 40.287 10.238 A 7.261 7.261 0 0 1 39.76 10.381 A 5.448 5.448 0 0 1 39.047 10.496 A 7.284 7.284 0 0 1 38.346 10.528 A 3.964 3.964 0 0 1 37.262 10.387 A 2.955 2.955 0 0 1 35.861 9.527 A 3.293 3.293 0 0 1 35.132 8.191 Q 34.991 7.702 34.956 7.119 A 6.597 6.597 0 0 1 34.944 6.72 A 4.95 4.95 0 0 1 35.061 5.625 A 4.038 4.038 0 0 1 35.357 4.767 Q 35.77 3.906 36.512 3.409 A 2.947 2.947 0 0 1 37.948 2.923 A 3.669 3.669 0 0 1 38.234 2.912 A 3.997 3.997 0 0 1 39 2.981 Q 39.468 3.073 39.842 3.284 A 2.41 2.41 0 0 1 39.977 3.367 Q 40.67 3.822 41.02 4.592 Q 41.37 5.362 41.37 6.286 Q 41.37 6.776 41.328 7.238 Z M 68.152 7.238 L 63.056 7.238 A 3.372 3.372 0 0 0 63.215 7.941 Q 63.382 8.417 63.692 8.753 A 2.097 2.097 0 0 0 63.77 8.834 A 1.98 1.98 0 0 0 64.837 9.368 A 2.803 2.803 0 0 0 65.324 9.408 A 5.142 5.142 0 0 0 65.923 9.375 A 3.861 3.861 0 0 0 66.458 9.275 Q 66.962 9.142 67.424 8.932 L 67.718 10.01 A 5.708 5.708 0 0 1 67.111 10.238 A 7.261 7.261 0 0 1 66.584 10.381 A 5.448 5.448 0 0 1 65.871 10.496 A 7.284 7.284 0 0 1 65.17 10.528 A 3.964 3.964 0 0 1 64.086 10.387 A 2.955 2.955 0 0 1 62.685 9.527 A 3.293 3.293 0 0 1 61.956 8.191 Q 61.815 7.702 61.78 7.119 A 6.597 6.597 0 0 1 61.768 6.72 A 4.95 4.95 0 0 1 61.885 5.625 A 4.038 4.038 0 0 1 62.181 4.767 Q 62.594 3.906 63.336 3.409 A 2.947 2.947 0 0 1 64.772 2.923 A 3.669 3.669 0 0 1 65.058 2.912 A 3.997 3.997 0 0 1 65.824 2.981 Q 66.292 3.073 66.666 3.284 A 2.41 2.41 0 0 1 66.801 3.367 Q 67.494 3.822 67.844 4.592 Q 68.194 5.362 68.194 6.286 Q 68.194 6.776 68.152 7.238 Z M 143.584 7.238 L 138.488 7.238 A 3.372 3.372 0 0 0 138.647 7.941 Q 138.814 8.417 139.124 8.753 A 2.097 2.097 0 0 0 139.202 8.834 A 1.98 1.98 0 0 0 140.269 9.368 A 2.803 2.803 0 0 0 140.756 9.408 A 5.142 5.142 0 0 0 141.355 9.375 A 3.861 3.861 0 0 0 141.89 9.275 Q 142.394 9.142 142.856 8.932 L 143.15 10.01 A 5.708 5.708 0 0 1 142.543 10.238 A 7.261 7.261 0 0 1 142.016 10.381 A 5.448 5.448 0 0 1 141.303 10.496 A 7.284 7.284 0 0 1 140.602 10.528 A 3.964 3.964 0 0 1 139.518 10.387 A 2.955 2.955 0 0 1 138.117 9.527 A 3.293 3.293 0 0 1 137.388 8.191 Q 137.247 7.702 137.212 7.119 A 6.597 6.597 0 0 1 137.2 6.72 A 4.95 4.95 0 0 1 137.317 5.625 A 4.038 4.038 0 0 1 137.613 4.767 Q 138.026 3.906 138.768 3.409 A 2.947 2.947 0 0 1 140.204 2.923 A 3.669 3.669 0 0 1 140.49 2.912 A 3.997 3.997 0 0 1 141.256 2.981 Q 141.724 3.073 142.098 3.284 A 2.41 2.41 0 0 1 142.233 3.367 Q 142.926 3.822 143.276 4.592 Q 143.626 5.362 143.626 6.286 Q 143.626 6.776 143.584 7.238 Z M 74.214 10.332 L 74.214 0.588 Q 74.872 0.518 75.502 0.483 A 21.183 21.183 0 0 1 76.088 0.459 Q 76.487 0.448 76.944 0.448 Q 78.204 0.448 79.121 0.84 A 4.337 4.337 0 0 1 80.141 1.445 A 3.811 3.811 0 0 1 80.633 1.918 Q 81.228 2.604 81.515 3.507 Q 81.802 4.41 81.802 5.446 A 6.343 6.343 0 0 1 81.595 7.084 A 5.852 5.852 0 0 1 81.508 7.378 Q 81.214 8.288 80.605 8.981 A 4.056 4.056 0 0 1 79.449 9.884 A 4.936 4.936 0 0 1 79.051 10.073 Q 78.106 10.472 76.79 10.472 Q 76.179 10.472 75.687 10.447 A 14.21 14.21 0 0 1 75.397 10.43 Q 74.802 10.388 74.214 10.332 Z M 1.33 10.36 L 0 10.36 L 0 0.588 A 15.72 15.72 0 0 1 0.604 0.527 A 20.658 20.658 0 0 1 1.267 0.483 A 28.113 28.113 0 0 1 2.517 0.449 A 31.077 31.077 0 0 1 2.702 0.448 Q 3.92 0.448 4.774 0.833 A 3.445 3.445 0 0 1 5.485 1.257 A 2.712 2.712 0 0 1 6.076 1.89 A 2.681 2.681 0 0 1 6.521 3.292 A 3.276 3.276 0 0 1 6.524 3.43 A 3.536 3.536 0 0 1 6.425 4.287 A 2.698 2.698 0 0 1 6.006 5.208 A 3.124 3.124 0 0 1 4.949 6.136 A 3.929 3.929 0 0 1 4.564 6.321 Q 3.64 6.706 2.422 6.706 A 14.563 14.563 0 0 1 1.787 6.693 A 11.61 11.61 0 0 1 1.33 6.664 L 1.33 10.36 Z M 25.228 3.668 L 25.228 3.08 L 26.376 3.08 L 26.376 8.596 A 1.701 1.701 0 0 0 26.39 8.825 Q 26.426 9.088 26.553 9.222 A 0.415 0.415 0 0 0 26.635 9.289 Q 26.894 9.45 27.202 9.45 L 26.936 10.43 Q 25.625 10.43 25.326 9.391 A 1.903 1.903 0 0 1 25.312 9.338 A 2.983 2.983 0 0 1 24.877 9.818 A 3.99 3.99 0 0 1 24.437 10.157 A 2.09 2.09 0 0 1 23.744 10.451 Q 23.418 10.528 23.03 10.528 Q 22.12 10.528 21.378 10.066 A 3.213 3.213 0 0 1 20.34 9.012 A 3.909 3.909 0 0 1 20.195 8.757 Q 19.754 7.91 19.754 6.762 A 4.64 4.64 0 0 1 19.894 5.604 A 3.916 3.916 0 0 1 20.195 4.802 Q 20.636 3.934 21.413 3.423 Q 22.19 2.912 23.198 2.912 A 3.162 3.162 0 0 1 23.869 2.981 A 2.618 2.618 0 0 1 24.339 3.129 A 3.64 3.64 0 0 1 24.939 3.45 A 3.094 3.094 0 0 1 25.228 3.668 Z M 88.606 3.668 L 88.606 3.08 L 89.754 3.08 L 89.754 8.596 A 1.701 1.701 0 0 0 89.768 8.825 Q 89.804 9.088 89.931 9.222 A 0.415 0.415 0 0 0 90.013 9.289 Q 90.272 9.45 90.58 9.45 L 90.314 10.43 Q 89.003 10.43 88.704 9.391 A 1.903 1.903 0 0 1 88.69 9.338 A 2.983 2.983 0 0 1 88.255 9.818 A 3.99 3.99 0 0 1 87.815 10.157 A 2.09 2.09 0 0 1 87.122 10.451 Q 86.796 10.528 86.408 10.528 Q 85.498 10.528 84.756 10.066 A 3.213 3.213 0 0 1 83.718 9.012 A 3.909 3.909 0 0 1 83.573 8.757 Q 83.132 7.91 83.132 6.762 A 4.64 4.64 0 0 1 83.272 5.604 A 3.916 3.916 0 0 1 83.573 4.802 Q 84.014 3.934 84.791 3.423 Q 85.568 2.912 86.576 2.912 A 3.162 3.162 0 0 1 87.247 2.981 A 2.618 2.618 0 0 1 87.717 3.129 A 3.64 3.64 0 0 1 88.317 3.45 A 3.094 3.094 0 0 1 88.606 3.668 Z M 7.924 8.078 L 7.924 0 L 9.184 0 L 9.184 7.952 A 2.89 2.89 0 0 0 9.21 8.356 Q 9.275 8.813 9.499 9.072 A 1.031 1.031 0 0 0 10.141 9.419 A 1.501 1.501 0 0 0 10.374 9.436 Q 10.64 9.436 10.899 9.373 A 3.107 3.107 0 0 0 11.104 9.316 Q 11.235 9.275 11.34 9.226 L 11.648 10.248 A 2.541 2.541 0 0 1 11.424 10.334 Q 11.245 10.394 11.025 10.444 A 3.334 3.334 0 0 1 10.583 10.512 A 4.272 4.272 0 0 1 10.206 10.528 A 2.921 2.921 0 0 1 9.521 10.45 A 2.456 2.456 0 0 1 9.044 10.283 A 1.776 1.776 0 0 1 8.299 9.616 A 2.22 2.22 0 0 1 8.225 9.492 Q 7.924 8.946 7.924 8.078 Z M 93.52 10.36 L 92.26 10.36 L 92.26 3.08 L 93.478 3.08 L 93.478 4.662 Q 93.66 4.2 93.968 3.801 Q 94.276 3.402 94.738 3.157 Q 95.2 2.912 95.816 2.912 A 2.692 2.692 0 0 1 95.819 2.912 A 4.219 4.219 0 0 1 96.236 2.933 A 2.656 2.656 0 0 1 96.384 2.952 Q 96.454 2.963 96.513 2.977 A 1.234 1.234 0 0 1 96.586 2.996 L 96.208 4.298 Q 95.942 4.186 95.578 4.186 A 1.814 1.814 0 0 0 94.65 4.444 A 2.186 2.186 0 0 0 94.591 4.48 A 1.876 1.876 0 0 0 94.105 4.928 Q 93.95 5.127 93.825 5.382 A 3.228 3.228 0 0 0 93.821 5.39 Q 93.574 5.895 93.53 6.626 A 5.472 5.472 0 0 0 93.52 6.958 L 93.52 10.36 Z M 122.733 10.341 A 3.81 3.81 0 0 0 123.942 10.528 A 4.302 4.302 0 0 0 124.26 10.516 A 3.536 3.536 0 0 0 125.797 10.052 Q 126.616 9.576 127.092 8.715 A 3.676 3.676 0 0 0 127.463 7.715 A 4.786 4.786 0 0 0 127.568 6.692 A 4.836 4.836 0 0 0 127.5 5.865 A 3.611 3.611 0 0 0 127.085 4.683 Q 126.602 3.836 125.783 3.374 A 3.479 3.479 0 0 0 125.133 3.09 A 3.883 3.883 0 0 0 123.942 2.912 A 4.386 4.386 0 0 0 123.721 2.918 A 3.664 3.664 0 0 0 122.094 3.374 Q 121.268 3.836 120.792 4.69 A 3.627 3.627 0 0 0 120.416 5.712 Q 120.318 6.174 120.316 6.702 A 5.763 5.763 0 0 0 120.316 6.72 A 4.875 4.875 0 0 0 120.353 7.33 A 3.843 3.843 0 0 0 120.785 8.701 Q 121.254 9.562 122.08 10.045 A 3.438 3.438 0 0 0 122.733 10.341 Z M 75.544 1.666 L 75.544 9.24 A 6.099 6.099 0 0 0 76.001 9.287 A 6.9 6.9 0 0 0 76.16 9.296 Q 76.482 9.31 76.832 9.31 A 5.307 5.307 0 0 0 77.695 9.244 Q 78.385 9.13 78.89 8.82 Q 79.688 8.33 80.066 7.455 A 4.521 4.521 0 0 0 80.382 6.325 A 5.95 5.95 0 0 0 80.444 5.446 Q 80.444 4.438 80.066 3.556 Q 79.688 2.674 78.904 2.135 A 2.925 2.925 0 0 0 77.917 1.707 Q 77.519 1.612 77.055 1.598 A 5.321 5.321 0 0 0 76.902 1.596 A 13.753 13.753 0 0 0 76.513 1.601 A 10.388 10.388 0 0 0 76.16 1.617 A 19.061 19.061 0 0 0 75.838 1.64 A 14.572 14.572 0 0 0 75.544 1.666 Z M 146.888 7.462 L 145.852 7.462 L 145.67 3.64 L 145.67 0.154 L 147.07 0.154 L 147.07 3.64 L 146.888 7.462 Z M 123.942 9.408 A 2.624 2.624 0 0 0 124.674 9.311 A 1.96 1.96 0 0 0 125.664 8.659 A 2.632 2.632 0 0 0 126.199 7.526 A 3.795 3.795 0 0 0 126.28 6.72 A 2.993 2.993 0 0 0 126.109 5.7 A 2.802 2.802 0 0 0 125.972 5.383 A 2.688 2.688 0 0 0 125.388 4.603 A 2.544 2.544 0 0 0 125.139 4.403 Q 124.614 4.032 123.942 4.032 A 2.695 2.695 0 0 0 123.21 4.126 A 1.965 1.965 0 0 0 122.22 4.76 Q 121.627 5.46 121.605 6.601 A 4.601 4.601 0 0 0 121.604 6.692 Q 121.604 7.42 121.912 8.043 A 2.721 2.721 0 0 0 122.406 8.749 A 2.468 2.468 0 0 0 122.745 9.037 Q 123.27 9.408 123.942 9.408 Z M 25.116 8.498 L 25.116 4.592 Q 24.738 4.326 24.283 4.165 Q 23.828 4.004 23.324 4.004 A 2.229 2.229 0 0 0 22.628 4.11 A 1.963 1.963 0 0 0 22.141 4.347 A 2.282 2.282 0 0 0 21.438 5.106 A 2.795 2.795 0 0 0 21.336 5.299 A 2.893 2.893 0 0 0 21.091 6.094 A 3.875 3.875 0 0 0 21.042 6.72 Q 21.042 7.504 21.336 8.113 Q 21.63 8.722 22.148 9.065 Q 22.666 9.408 23.31 9.408 Q 23.842 9.408 24.318 9.149 A 2.723 2.723 0 0 0 24.979 8.652 A 2.53 2.53 0 0 0 25.116 8.498 Z M 88.494 8.498 L 88.494 4.592 Q 88.116 4.326 87.661 4.165 Q 87.206 4.004 86.702 4.004 A 2.229 2.229 0 0 0 86.006 4.11 A 1.963 1.963 0 0 0 85.519 4.347 A 2.282 2.282 0 0 0 84.816 5.106 A 2.795 2.795 0 0 0 84.714 5.299 A 2.893 2.893 0 0 0 84.469 6.094 A 3.875 3.875 0 0 0 84.42 6.72 Q 84.42 7.504 84.714 8.113 Q 85.008 8.722 85.526 9.065 Q 86.044 9.408 86.688 9.408 Q 87.22 9.408 87.696 9.149 A 2.723 2.723 0 0 0 88.357 8.652 A 2.53 2.53 0 0 0 88.494 8.498 Z M 134.064 8.526 L 134.064 4.914 Q 133.798 4.578 133.322 4.291 Q 132.846 4.004 132.272 4.004 A 2.092 2.092 0 0 0 131.578 4.116 A 1.874 1.874 0 0 0 131.096 4.368 A 2.337 2.337 0 0 0 130.372 5.229 A 2.79 2.79 0 0 0 130.319 5.341 Q 130.046 5.95 130.046 6.72 Q 130.046 7.49 130.34 8.099 A 2.549 2.549 0 0 0 130.766 8.731 A 2.257 2.257 0 0 0 131.145 9.058 Q 131.656 9.408 132.286 9.408 Q 132.804 9.408 133.273 9.163 Q 133.742 8.918 134.064 8.526 Z M 1.33 1.624 L 1.33 5.53 A 6.716 6.716 0 0 0 1.512 5.55 Q 1.675 5.566 1.876 5.579 A 9.533 9.533 0 0 0 2.215 5.595 A 12.758 12.758 0 0 0 2.59 5.6 A 4.456 4.456 0 0 0 3.343 5.54 Q 3.746 5.471 4.069 5.322 A 2.131 2.131 0 0 0 4.522 5.04 Q 5.208 4.48 5.208 3.542 Q 5.208 2.632 4.55 2.1 A 2.165 2.165 0 0 0 3.839 1.727 Q 3.527 1.628 3.15 1.59 A 4.841 4.841 0 0 0 2.674 1.568 A 18.357 18.357 0 0 0 2.218 1.573 A 15.391 15.391 0 0 0 1.96 1.582 Q 1.624 1.596 1.33 1.624 Z M 13.412 6.216 L 17.402 6.216 A 3.41 3.41 0 0 0 17.345 5.574 Q 17.228 4.965 16.87 4.578 A 1.748 1.748 0 0 0 15.896 4.049 A 2.575 2.575 0 0 0 15.4 4.004 A 1.901 1.901 0 0 0 14.684 4.135 A 1.753 1.753 0 0 0 14.056 4.571 Q 13.524 5.138 13.412 6.216 Z M 36.218 6.216 L 40.208 6.216 A 3.41 3.41 0 0 0 40.151 5.574 Q 40.034 4.965 39.676 4.578 A 1.748 1.748 0 0 0 38.702 4.049 A 2.575 2.575 0 0 0 38.206 4.004 A 1.901 1.901 0 0 0 37.49 4.135 A 1.753 1.753 0 0 0 36.862 4.571 Q 36.33 5.138 36.218 6.216 Z M 63.042 6.216 L 67.032 6.216 A 3.41 3.41 0 0 0 66.975 5.574 Q 66.858 4.965 66.5 4.578 A 1.748 1.748 0 0 0 65.526 4.049 A 2.575 2.575 0 0 0 65.03 4.004 A 1.901 1.901 0 0 0 64.314 4.135 A 1.753 1.753 0 0 0 63.686 4.571 Q 63.154 5.138 63.042 6.216 Z M 138.474 6.216 L 142.464 6.216 A 3.41 3.41 0 0 0 142.407 5.574 Q 142.29 4.965 141.932 4.578 A 1.748 1.748 0 0 0 140.958 4.049 A 2.575 2.575 0 0 0 140.462 4.004 A 1.901 1.901 0 0 0 139.746 4.135 A 1.753 1.753 0 0 0 139.118 4.571 Q 138.586 5.138 138.474 6.216 Z M 145.735 10.257 A 0.898 0.898 0 0 0 146.384 10.528 A 1.205 1.205 0 0 0 146.471 10.525 A 0.904 0.904 0 0 0 147.056 10.269 Q 147.322 10.01 147.322 9.59 Q 147.322 9.212 147.035 8.932 Q 146.748 8.652 146.384 8.652 A 1.234 1.234 0 0 0 146.125 8.678 A 0.837 0.837 0 0 0 145.698 8.904 A 0.83 0.83 0 0 0 145.479 9.302 A 1.207 1.207 0 0 0 145.446 9.59 Q 145.446 9.968 145.726 10.248 A 1.163 1.163 0 0 0 145.735 10.257 Z" vector-effect="non-scaling-stroke"/></g></svg>