<svg width="189.72" height="11.94" viewBox="0 0 189.72 11.94" xmlns="http://www.w3.org/2000/svg"><g id="svgGroup" stroke-linecap="round" fill-rule="evenodd" font-size="9pt" stroke="#000" stroke-width="0.25mm" fill="black" style="stroke:#000;stroke-width:0.25mm;fill:black"><path d="M 149.724 9.156 L 148.644 9.156 L 148.644 2.916 L 149.688 2.916 L 149.688 3.96 Q 150.024 3.456 150.54 3.114 A 2.065 2.065 0 0 1 151.644 2.773 A 2.503 2.503 0 0 1 151.716 2.772 A 2.519 2.519 0 0 1 152.246 2.825 Q 152.604 2.902 152.878 3.092 A 1.575 1.575 0 0 1 152.934 3.132 A 1.89 1.89 0 0 1 153.588 4.055 A 2.297 2.297 0 0 1 153.6 4.092 Q 153.972 3.54 154.482 3.156 Q 154.992 2.772 155.748 2.772 A 2.572 2.572 0 0 1 156.335 2.835 Q 156.765 2.935 157.064 3.198 A 1.559 1.559 0 0 1 157.266 3.414 A 2.279 2.279 0 0 1 157.675 4.287 Q 157.753 4.607 157.763 4.98 A 4.152 4.152 0 0 1 157.764 5.088 L 157.764 9.156 L 156.684 9.156 L 156.684 5.172 Q 156.684 4.627 156.471 4.255 A 1.318 1.318 0 0 0 156.384 4.122 A 0.957 0.957 0 0 0 155.686 3.726 A 1.281 1.281 0 0 0 155.556 3.72 A 1.431 1.431 0 0 0 154.745 3.975 A 1.92 1.92 0 0 0 154.554 4.122 Q 154.092 4.524 153.744 5.064 L 153.744 9.156 L 152.664 9.156 L 152.664 5.172 Q 152.664 4.627 152.451 4.255 A 1.318 1.318 0 0 0 152.364 4.122 A 0.957 0.957 0 0 0 151.666 3.726 A 1.281 1.281 0 0 0 151.536 3.72 A 1.442 1.442 0 0 0 150.778 3.939 A 1.949 1.949 0 0 0 150.54 4.11 Q 150.072 4.5 149.724 5.028 L 149.724 9.156 Z M 8.46 9.156 L 7.38 9.156 L 7.38 0.276 L 8.46 0.276 L 8.46 3.912 Q 8.796 3.42 9.312 3.096 A 2.109 2.109 0 0 1 10.167 2.795 A 2.711 2.711 0 0 1 10.524 2.772 Q 11.58 2.772 12.102 3.408 A 2.208 2.208 0 0 1 12.535 4.293 Q 12.624 4.656 12.624 5.088 L 12.624 9.156 L 11.544 9.156 L 11.544 5.208 A 2.355 2.355 0 0 0 11.504 4.759 Q 11.432 4.389 11.232 4.128 A 1.01 1.01 0 0 0 10.493 3.726 A 1.438 1.438 0 0 0 10.356 3.72 A 1.588 1.588 0 0 0 9.55 3.944 A 2.11 2.11 0 0 0 9.306 4.11 Q 8.808 4.5 8.46 5.028 L 8.46 9.156 Z M 103.332 9.156 L 102.252 9.156 L 102.252 0.276 L 103.332 0.276 L 103.332 3.912 Q 103.668 3.42 104.184 3.096 A 2.109 2.109 0 0 1 105.039 2.795 A 2.711 2.711 0 0 1 105.396 2.772 Q 106.452 2.772 106.974 3.408 A 2.208 2.208 0 0 1 107.407 4.293 Q 107.496 4.656 107.496 5.088 L 107.496 9.156 L 106.416 9.156 L 106.416 5.208 A 2.355 2.355 0 0 0 106.376 4.759 Q 106.304 4.389 106.104 4.128 A 1.01 1.01 0 0 0 105.365 3.726 A 1.438 1.438 0 0 0 105.228 3.72 A 1.588 1.588 0 0 0 104.422 3.944 A 2.11 2.11 0 0 0 104.178 4.11 Q 103.68 4.5 103.332 5.028 L 103.332 9.156 Z M 34.044 8.556 L 33.3 9.276 L 30.072 5.952 L 30.072 9.156 L 28.992 9.156 L 28.992 0.276 L 30.072 0.276 L 30.072 5.352 L 32.892 2.796 L 33.516 3.48 L 31.104 5.616 L 34.044 8.556 Z M 143.964 8.556 L 143.22 9.276 L 139.992 5.952 L 139.992 9.156 L 138.912 9.156 L 138.912 0.276 L 139.992 0.276 L 139.992 5.352 L 142.812 2.796 L 143.436 3.48 L 141.024 5.616 L 143.964 8.556 Z M 87.156 11.412 L 87.552 10.476 A 2.467 2.467 0 0 0 88.01 10.761 A 2.968 2.968 0 0 0 88.224 10.854 Q 88.608 11.004 89.16 11.004 A 2.604 2.604 0 0 0 89.703 10.951 Q 90.051 10.877 90.315 10.699 A 1.509 1.509 0 0 0 90.498 10.554 A 1.362 1.362 0 0 0 90.847 10.015 Q 90.928 9.794 90.961 9.52 A 3.341 3.341 0 0 0 90.984 9.12 L 90.984 8.352 Q 90.788 8.587 90.453 8.801 A 3.769 3.769 0 0 1 90.294 8.898 A 1.909 1.909 0 0 1 89.672 9.118 A 2.591 2.591 0 0 1 89.22 9.156 Q 88.512 9.156 87.876 8.79 A 2.668 2.668 0 0 1 87.001 7.969 A 3.292 3.292 0 0 1 86.844 7.716 A 3.022 3.022 0 0 1 86.518 6.801 A 4.204 4.204 0 0 1 86.448 6.012 A 3.847 3.847 0 0 1 86.558 5.075 A 3.202 3.202 0 0 1 86.838 4.344 A 3.085 3.085 0 0 1 87.566 3.429 A 2.934 2.934 0 0 1 87.888 3.192 Q 88.548 2.772 89.34 2.772 A 2.684 2.684 0 0 1 89.918 2.832 A 2.246 2.246 0 0 1 90.3 2.952 A 3.085 3.085 0 0 1 90.759 3.188 A 2.52 2.52 0 0 1 91.044 3.396 L 91.044 2.916 L 92.028 2.916 L 92.028 9.012 A 4.883 4.883 0 0 1 91.985 9.676 Q 91.904 10.267 91.668 10.692 Q 91.308 11.34 90.666 11.64 A 3.097 3.097 0 0 1 89.874 11.883 A 4.229 4.229 0 0 1 89.16 11.94 Q 88.608 11.94 88.086 11.808 A 3.268 3.268 0 0 1 87.45 11.578 A 2.822 2.822 0 0 1 87.156 11.412 Z M 63.84 6.972 L 63.84 2.916 L 64.92 2.916 L 64.92 6.828 A 2.758 2.758 0 0 0 64.95 7.252 Q 64.985 7.474 65.059 7.652 A 1.216 1.216 0 0 0 65.232 7.95 A 1.009 1.009 0 0 0 65.846 8.312 A 1.537 1.537 0 0 0 66.144 8.34 Q 66.636 8.34 67.098 8.142 Q 67.56 7.944 67.92 7.608 L 67.92 2.916 L 69 2.916 L 69 7.536 A 1.872 1.872 0 0 0 69.012 7.758 Q 69.052 8.09 69.222 8.214 Q 69.444 8.376 69.708 8.376 L 69.48 9.216 Q 68.366 9.216 68.101 8.331 A 1.528 1.528 0 0 1 68.1 8.328 Q 67.68 8.76 67.128 9.03 Q 66.576 9.3 65.94 9.3 Q 65.4 9.3 64.92 9.072 A 1.733 1.733 0 0 1 64.259 8.515 A 2.192 2.192 0 0 1 64.14 8.334 A 1.949 1.949 0 0 1 63.94 7.843 Q 63.878 7.606 63.854 7.325 A 4.245 4.245 0 0 1 63.84 6.972 Z M 22.968 9.156 L 21.888 9.156 L 21.888 2.916 L 22.932 2.916 L 22.932 3.96 Q 23.268 3.456 23.79 3.114 Q 24.312 2.772 25.032 2.772 Q 26.088 2.772 26.61 3.408 A 2.208 2.208 0 0 1 27.043 4.293 Q 27.132 4.656 27.132 5.088 L 27.132 9.156 L 26.052 9.156 L 26.052 5.208 Q 26.052 4.536 25.734 4.128 A 1.03 1.03 0 0 0 24.981 3.726 A 1.447 1.447 0 0 0 24.852 3.72 A 1.575 1.575 0 0 0 24.03 3.956 A 2.082 2.082 0 0 0 23.808 4.11 Q 23.316 4.5 22.968 5.028 L 22.968 9.156 Z M 80.844 9.156 L 79.764 9.156 L 79.764 2.916 L 80.808 2.916 L 80.808 3.96 Q 81.144 3.456 81.666 3.114 Q 82.188 2.772 82.908 2.772 Q 83.964 2.772 84.486 3.408 A 2.208 2.208 0 0 1 84.919 4.293 Q 85.008 4.656 85.008 5.088 L 85.008 9.156 L 83.928 9.156 L 83.928 5.208 Q 83.928 4.536 83.61 4.128 A 1.03 1.03 0 0 0 82.857 3.726 A 1.447 1.447 0 0 0 82.728 3.72 A 1.575 1.575 0 0 0 81.906 3.956 A 2.082 2.082 0 0 0 81.684 4.11 Q 81.192 4.5 80.844 5.028 L 80.844 9.156 Z M 34.584 8.652 L 35.04 7.752 A 2.227 2.227 0 0 0 35.417 8.007 Q 35.602 8.108 35.823 8.189 A 3.761 3.761 0 0 0 35.826 8.19 A 2.889 2.889 0 0 0 36.739 8.362 A 3.296 3.296 0 0 0 36.84 8.364 A 3.254 3.254 0 0 0 37.21 8.344 Q 37.592 8.301 37.828 8.158 A 0.929 0.929 0 0 0 37.854 8.142 A 0.894 0.894 0 0 0 38.038 7.987 A 0.606 0.606 0 0 0 38.196 7.572 A 0.855 0.855 0 0 0 38.158 7.314 A 0.745 0.745 0 0 0 38.07 7.128 A 0.766 0.766 0 0 0 37.959 6.997 Q 37.829 6.872 37.608 6.75 A 3.415 3.415 0 0 0 37.369 6.631 Q 37.115 6.515 36.756 6.389 A 12.432 12.432 0 0 0 36.636 6.348 A 5.594 5.594 0 0 1 36.108 6.139 Q 35.855 6.022 35.653 5.891 A 2.32 2.32 0 0 1 35.322 5.634 A 1.359 1.359 0 0 1 34.927 4.914 A 2.015 2.015 0 0 1 34.884 4.488 A 1.454 1.454 0 0 1 35.358 3.406 A 2.095 2.095 0 0 1 35.514 3.27 A 2.132 2.132 0 0 1 36.238 2.904 Q 36.545 2.813 36.913 2.785 A 4.503 4.503 0 0 1 37.26 2.772 A 4.895 4.895 0 0 1 37.793 2.8 Q 38.07 2.83 38.312 2.894 A 3.021 3.021 0 0 1 38.328 2.898 A 4.652 4.652 0 0 1 38.824 3.061 A 3.733 3.733 0 0 1 39.168 3.216 L 38.868 4.104 Q 38.544 3.912 38.13 3.792 A 3.003 3.003 0 0 0 37.592 3.69 A 3.82 3.82 0 0 0 37.212 3.672 A 2.476 2.476 0 0 0 36.86 3.695 Q 36.68 3.721 36.535 3.776 A 1.021 1.021 0 0 0 36.264 3.924 Q 36.049 4.091 35.977 4.28 A 0.543 0.543 0 0 0 35.94 4.476 A 0.59 0.59 0 0 0 36.119 4.902 A 0.85 0.85 0 0 0 36.192 4.968 A 1.186 1.186 0 0 0 36.348 5.072 Q 36.621 5.228 37.152 5.404 A 10.167 10.167 0 0 0 37.176 5.412 A 8.13 8.13 0 0 1 37.783 5.64 Q 38.361 5.885 38.692 6.159 A 1.794 1.794 0 0 1 38.832 6.288 A 1.632 1.632 0 0 1 39.298 7.398 A 2.148 2.148 0 0 1 39.3 7.488 Q 39.3 8.328 38.622 8.814 Q 37.944 9.3 36.804 9.3 Q 36.096 9.3 35.526 9.12 A 3.706 3.706 0 0 1 35.065 8.942 Q 34.828 8.83 34.638 8.692 A 2.188 2.188 0 0 1 34.584 8.652 Z M 70.608 8.652 L 71.064 7.752 A 2.227 2.227 0 0 0 71.441 8.007 Q 71.626 8.108 71.847 8.189 A 3.761 3.761 0 0 0 71.85 8.19 A 2.889 2.889 0 0 0 72.763 8.362 A 3.296 3.296 0 0 0 72.864 8.364 A 3.254 3.254 0 0 0 73.234 8.344 Q 73.616 8.301 73.852 8.158 A 0.929 0.929 0 0 0 73.878 8.142 A 0.894 0.894 0 0 0 74.062 7.987 A 0.606 0.606 0 0 0 74.22 7.572 A 0.855 0.855 0 0 0 74.182 7.314 A 0.745 0.745 0 0 0 74.094 7.128 A 0.766 0.766 0 0 0 73.983 6.997 Q 73.853 6.872 73.632 6.75 A 3.415 3.415 0 0 0 73.393 6.631 Q 73.139 6.515 72.78 6.389 A 12.432 12.432 0 0 0 72.66 6.348 A 5.594 5.594 0 0 1 72.132 6.139 Q 71.879 6.022 71.677 5.891 A 2.32 2.32 0 0 1 71.346 5.634 A 1.359 1.359 0 0 1 70.951 4.914 A 2.015 2.015 0 0 1 70.908 4.488 A 1.454 1.454 0 0 1 71.382 3.406 A 2.095 2.095 0 0 1 71.538 3.27 A 2.132 2.132 0 0 1 72.262 2.904 Q 72.569 2.813 72.937 2.785 A 4.503 4.503 0 0 1 73.284 2.772 A 4.895 4.895 0 0 1 73.817 2.8 Q 74.094 2.83 74.336 2.894 A 3.021 3.021 0 0 1 74.352 2.898 A 4.652 4.652 0 0 1 74.848 3.061 A 3.733 3.733 0 0 1 75.192 3.216 L 74.892 4.104 Q 74.568 3.912 74.154 3.792 A 3.003 3.003 0 0 0 73.616 3.69 A 3.82 3.82 0 0 0 73.236 3.672 A 2.476 2.476 0 0 0 72.884 3.695 Q 72.704 3.721 72.559 3.776 A 1.021 1.021 0 0 0 72.288 3.924 Q 72.073 4.091 72.001 4.28 A 0.543 0.543 0 0 0 71.964 4.476 A 0.59 0.59 0 0 0 72.143 4.902 A 0.85 0.85 0 0 0 72.216 4.968 A 1.186 1.186 0 0 0 72.372 5.072 Q 72.645 5.228 73.176 5.404 A 10.167 10.167 0 0 0 73.2 5.412 A 8.13 8.13 0 0 1 73.807 5.64 Q 74.385 5.885 74.716 6.159 A 1.794 1.794 0 0 1 74.856 6.288 A 1.632 1.632 0 0 1 75.322 7.398 A 2.148 2.148 0 0 1 75.324 7.488 Q 75.324 8.328 74.646 8.814 Q 73.968 9.3 72.828 9.3 Q 72.12 9.3 71.55 9.12 A 3.706 3.706 0 0 1 71.089 8.942 Q 70.852 8.83 70.662 8.692 A 2.188 2.188 0 0 1 70.608 8.652 Z M 45.54 9.156 L 44.46 9.156 L 44.46 4.08 L 43.5 4.08 L 43.5 3.144 L 44.46 3.144 L 44.46 2.412 A 3.059 3.059 0 0 1 44.535 1.714 Q 44.668 1.146 45.036 0.756 A 1.967 1.967 0 0 1 45.048 0.744 Q 45.636 0.132 46.584 0.132 A 3.598 3.598 0 0 1 47.005 0.155 Q 47.245 0.184 47.448 0.246 Q 47.82 0.36 48.156 0.528 L 47.832 1.44 A 4.675 4.675 0 0 0 47.399 1.241 A 5.267 5.267 0 0 0 47.292 1.2 A 1.701 1.701 0 0 0 46.857 1.102 A 2.083 2.083 0 0 0 46.656 1.092 A 1.296 1.296 0 0 0 46.292 1.141 A 0.995 0.995 0 0 0 45.846 1.41 Q 45.54 1.728 45.54 2.34 L 45.54 3.144 L 47.388 3.144 L 47.388 4.08 L 45.54 4.08 L 45.54 9.156 Z M 3.72 9.156 L 2.58 9.156 L 2.58 1.764 L 0 1.764 L 0 0.756 L 6.3 0.756 L 6.3 1.764 L 3.72 1.764 L 3.72 9.156 Z M 123.612 3.54 L 123.612 0.276 L 124.692 0.276 L 124.692 7.644 A 1.458 1.458 0 0 0 124.704 7.84 Q 124.735 8.066 124.844 8.18 A 0.356 0.356 0 0 0 124.914 8.238 Q 125.136 8.376 125.4 8.376 L 125.172 9.216 Q 124.032 9.216 123.78 8.304 A 2.338 2.338 0 0 1 123.44 8.682 Q 123.27 8.837 123.056 8.979 A 3.895 3.895 0 0 1 123.042 8.988 Q 122.594 9.283 121.927 9.299 A 3.23 3.23 0 0 1 121.848 9.3 Q 121.08 9.3 120.444 8.904 Q 119.808 8.508 119.436 7.782 A 3.304 3.304 0 0 1 119.125 6.829 A 4.466 4.466 0 0 1 119.064 6.072 A 4.073 4.073 0 0 1 119.171 5.122 A 3.356 3.356 0 0 1 119.442 4.38 A 3.275 3.275 0 0 1 119.996 3.589 A 2.902 2.902 0 0 1 120.45 3.204 Q 121.08 2.772 121.836 2.772 A 2.597 2.597 0 0 1 122.349 2.82 A 1.913 1.913 0 0 1 122.91 3.024 A 4.121 4.121 0 0 1 123.22 3.215 Q 123.454 3.375 123.612 3.54 Z M 170.928 3.54 L 170.928 0.276 L 172.008 0.276 L 172.008 7.644 A 1.458 1.458 0 0 0 172.02 7.84 Q 172.051 8.066 172.16 8.18 A 0.356 0.356 0 0 0 172.23 8.238 Q 172.452 8.376 172.716 8.376 L 172.488 9.216 Q 171.348 9.216 171.096 8.304 A 2.338 2.338 0 0 1 170.756 8.682 Q 170.586 8.837 170.372 8.979 A 3.895 3.895 0 0 1 170.358 8.988 Q 169.91 9.283 169.243 9.299 A 3.23 3.23 0 0 1 169.164 9.3 Q 168.396 9.3 167.76 8.904 Q 167.124 8.508 166.752 7.782 A 3.304 3.304 0 0 1 166.441 6.829 A 4.466 4.466 0 0 1 166.38 6.072 A 4.073 4.073 0 0 1 166.487 5.122 A 3.356 3.356 0 0 1 166.758 4.38 A 3.275 3.275 0 0 1 167.312 3.589 A 2.902 2.902 0 0 1 167.766 3.204 Q 168.396 2.772 169.152 2.772 A 2.597 2.597 0 0 1 169.665 2.82 A 1.913 1.913 0 0 1 170.226 3.024 A 4.121 4.121 0 0 1 170.536 3.215 Q 170.77 3.375 170.928 3.54 Z M 114.408 6.48 L 110.04 6.48 A 2.891 2.891 0 0 0 110.177 7.083 Q 110.319 7.49 110.585 7.779 A 1.798 1.798 0 0 0 110.652 7.848 Q 111.156 8.34 111.984 8.34 Q 112.524 8.34 112.956 8.226 Q 113.388 8.112 113.784 7.932 L 114.036 8.856 A 4.892 4.892 0 0 1 113.516 9.051 A 6.224 6.224 0 0 1 113.064 9.174 A 4.67 4.67 0 0 1 112.453 9.272 A 6.243 6.243 0 0 1 111.852 9.3 A 3.398 3.398 0 0 1 110.922 9.179 A 2.533 2.533 0 0 1 109.722 8.442 A 2.823 2.823 0 0 1 109.097 7.297 Q 108.976 6.877 108.946 6.378 A 5.655 5.655 0 0 1 108.936 6.036 A 4.243 4.243 0 0 1 109.036 5.097 A 3.461 3.461 0 0 1 109.29 4.362 A 2.957 2.957 0 0 1 109.892 3.512 A 2.746 2.746 0 0 1 110.28 3.198 Q 110.916 2.772 111.756 2.772 A 3.426 3.426 0 0 1 112.412 2.832 Q 112.814 2.91 113.134 3.091 A 2.066 2.066 0 0 1 113.25 3.162 Q 113.844 3.552 114.144 4.212 A 3.382 3.382 0 0 1 114.435 5.396 A 4.012 4.012 0 0 1 114.444 5.664 A 9.024 9.024 0 0 1 114.409 6.468 A 8.337 8.337 0 0 1 114.408 6.48 Z M 179.088 6.48 L 174.72 6.48 A 2.891 2.891 0 0 0 174.857 7.083 Q 174.999 7.49 175.265 7.779 A 1.798 1.798 0 0 0 175.332 7.848 Q 175.836 8.34 176.664 8.34 Q 177.204 8.34 177.636 8.226 Q 178.068 8.112 178.464 7.932 L 178.716 8.856 A 4.892 4.892 0 0 1 178.196 9.051 A 6.224 6.224 0 0 1 177.744 9.174 A 4.67 4.67 0 0 1 177.133 9.272 A 6.243 6.243 0 0 1 176.532 9.3 A 3.398 3.398 0 0 1 175.602 9.179 A 2.533 2.533 0 0 1 174.402 8.442 A 2.823 2.823 0 0 1 173.777 7.297 Q 173.656 6.877 173.626 6.378 A 5.655 5.655 0 0 1 173.616 6.036 A 4.243 4.243 0 0 1 173.716 5.097 A 3.461 3.461 0 0 1 173.97 4.362 A 2.957 2.957 0 0 1 174.572 3.512 A 2.746 2.746 0 0 1 174.96 3.198 Q 175.596 2.772 176.436 2.772 A 3.426 3.426 0 0 1 177.092 2.832 Q 177.494 2.91 177.814 3.091 A 2.066 2.066 0 0 1 177.93 3.162 Q 178.524 3.552 178.824 4.212 A 3.382 3.382 0 0 1 179.115 5.396 A 4.012 4.012 0 0 1 179.124 5.664 A 9.024 9.024 0 0 1 179.089 6.468 A 8.337 8.337 0 0 1 179.088 6.48 Z M 97.728 7.008 L 97.728 4.08 L 96.648 4.08 L 96.648 3.144 L 97.752 3.144 L 97.98 1.176 L 98.808 1.176 L 98.808 3.144 L 100.536 3.144 L 100.536 4.08 L 98.808 4.08 L 98.808 7.092 A 2.587 2.587 0 0 0 98.828 7.428 Q 98.876 7.793 99.039 7.996 A 0.667 0.667 0 0 0 99.102 8.064 Q 99.396 8.34 99.804 8.34 Q 100.104 8.34 100.374 8.244 A 3.088 3.088 0 0 0 100.755 8.08 A 2.732 2.732 0 0 0 100.872 8.016 L 101.172 8.88 A 2.226 2.226 0 0 1 100.978 8.983 Q 100.785 9.074 100.524 9.162 Q 100.116 9.3 99.672 9.3 A 2.199 2.199 0 0 1 99.05 9.216 A 1.672 1.672 0 0 1 98.25 8.706 A 1.934 1.934 0 0 1 97.863 7.998 Q 97.728 7.569 97.728 7.008 Z M 18.756 3.42 L 18.756 2.916 L 19.74 2.916 L 19.74 7.644 A 1.458 1.458 0 0 0 19.752 7.84 Q 19.783 8.066 19.892 8.18 A 0.356 0.356 0 0 0 19.962 8.238 Q 20.184 8.376 20.448 8.376 L 20.22 9.216 Q 19.068 9.216 18.828 8.28 A 2.557 2.557 0 0 1 18.455 8.691 A 3.42 3.42 0 0 1 18.078 8.982 A 1.791 1.791 0 0 1 17.484 9.234 Q 17.241 9.291 16.959 9.299 A 3.264 3.264 0 0 1 16.872 9.3 Q 16.092 9.3 15.456 8.904 A 2.754 2.754 0 0 1 14.566 8.001 A 3.351 3.351 0 0 1 14.442 7.782 Q 14.064 7.056 14.064 6.072 A 3.977 3.977 0 0 1 14.184 5.08 A 3.356 3.356 0 0 1 14.442 4.392 Q 14.82 3.648 15.486 3.21 A 2.676 2.676 0 0 1 16.829 2.777 A 3.287 3.287 0 0 1 17.016 2.772 A 2.71 2.71 0 0 1 17.591 2.831 A 2.244 2.244 0 0 1 17.994 2.958 A 3.12 3.12 0 0 1 18.508 3.233 A 2.652 2.652 0 0 1 18.756 3.42 Z M 130.992 3.42 L 130.992 2.916 L 131.976 2.916 L 131.976 7.644 A 1.458 1.458 0 0 0 131.988 7.84 Q 132.019 8.066 132.128 8.18 A 0.356 0.356 0 0 0 132.198 8.238 Q 132.42 8.376 132.684 8.376 L 132.456 9.216 Q 131.304 9.216 131.064 8.28 A 2.557 2.557 0 0 1 130.691 8.691 A 3.42 3.42 0 0 1 130.314 8.982 A 1.791 1.791 0 0 1 129.72 9.234 Q 129.477 9.291 129.195 9.299 A 3.264 3.264 0 0 1 129.108 9.3 Q 128.328 9.3 127.692 8.904 A 2.754 2.754 0 0 1 126.802 8.001 A 3.351 3.351 0 0 1 126.678 7.782 Q 126.3 7.056 126.3 6.072 A 3.977 3.977 0 0 1 126.42 5.08 A 3.356 3.356 0 0 1 126.678 4.392 Q 127.056 3.648 127.722 3.21 A 2.676 2.676 0 0 1 129.065 2.777 A 3.287 3.287 0 0 1 129.252 2.772 A 2.71 2.71 0 0 1 129.827 2.831 A 2.244 2.244 0 0 1 130.23 2.958 A 3.12 3.12 0 0 1 130.744 3.233 A 2.652 2.652 0 0 1 130.992 3.42 Z M 188.136 10.632 L 187.5 10.272 A 13.385 13.385 0 0 0 188.048 8.793 A 16.108 16.108 0 0 0 188.268 8.004 Q 188.58 6.768 188.58 5.316 Q 188.58 3.852 188.268 2.61 A 14.702 14.702 0 0 0 187.871 1.287 A 11.801 11.801 0 0 0 187.5 0.36 L 188.136 0 A 13.355 13.355 0 0 1 189.07 1.9 A 11.837 11.837 0 0 1 189.3 2.538 A 8.467 8.467 0 0 1 189.69 4.535 A 10.119 10.119 0 0 1 189.72 5.316 Q 189.72 6.708 189.3 8.01 A 13.7 13.7 0 0 1 188.508 9.932 A 16.05 16.05 0 0 1 188.136 10.632 Z M 56.592 9.156 L 55.512 9.156 L 55.512 2.916 L 56.556 2.916 L 56.556 4.272 Q 56.712 3.876 56.976 3.534 Q 57.24 3.192 57.636 2.982 A 1.778 1.778 0 0 1 58.198 2.799 A 2.335 2.335 0 0 1 58.56 2.772 Q 58.74 2.772 58.92 2.79 Q 59.056 2.804 59.158 2.827 A 1.058 1.058 0 0 1 59.22 2.844 L 58.896 3.96 Q 58.678 3.868 58.384 3.864 A 1.991 1.991 0 0 0 58.356 3.864 A 1.555 1.555 0 0 0 57.56 4.085 A 1.873 1.873 0 0 0 57.51 4.116 A 1.608 1.608 0 0 0 57.093 4.5 Q 56.961 4.671 56.853 4.889 A 2.715 2.715 0 0 0 56.85 4.896 A 2.318 2.318 0 0 0 56.674 5.413 Q 56.618 5.663 56.6 5.955 A 4.691 4.691 0 0 0 56.592 6.24 L 56.592 9.156 Z M 135.204 9.156 L 134.124 9.156 L 134.124 2.916 L 135.168 2.916 L 135.168 4.272 Q 135.324 3.876 135.588 3.534 Q 135.852 3.192 136.248 2.982 A 1.778 1.778 0 0 1 136.81 2.799 A 2.335 2.335 0 0 1 137.172 2.772 Q 137.352 2.772 137.532 2.79 Q 137.668 2.804 137.77 2.827 A 1.058 1.058 0 0 1 137.832 2.844 L 137.508 3.96 Q 137.29 3.868 136.996 3.864 A 1.991 1.991 0 0 0 136.968 3.864 A 1.555 1.555 0 0 0 136.172 4.085 A 1.873 1.873 0 0 0 136.122 4.116 A 1.608 1.608 0 0 0 135.705 4.5 Q 135.573 4.671 135.465 4.889 A 2.715 2.715 0 0 0 135.462 4.896 A 2.318 2.318 0 0 0 135.286 5.413 Q 135.23 5.663 135.212 5.955 A 4.691 4.691 0 0 0 135.204 6.24 L 135.204 9.156 Z M 49.927 9.139 A 3.266 3.266 0 0 0 50.964 9.3 A 3.687 3.687 0 0 0 51.237 9.29 A 3.031 3.031 0 0 0 52.554 8.892 Q 53.256 8.484 53.664 7.746 A 3.151 3.151 0 0 0 53.982 6.889 A 4.102 4.102 0 0 0 54.072 6.012 A 4.145 4.145 0 0 0 54.014 5.303 A 3.095 3.095 0 0 0 53.658 4.29 Q 53.244 3.564 52.542 3.168 A 2.982 2.982 0 0 0 51.985 2.925 A 3.329 3.329 0 0 0 50.964 2.772 A 3.759 3.759 0 0 0 50.774 2.777 A 3.14 3.14 0 0 0 49.38 3.168 Q 48.672 3.564 48.264 4.296 Q 47.856 5.028 47.856 6.036 A 4.178 4.178 0 0 0 47.888 6.558 A 3.294 3.294 0 0 0 48.258 7.734 Q 48.66 8.472 49.368 8.886 A 2.947 2.947 0 0 0 49.927 9.139 Z M 161.215 9.139 A 3.266 3.266 0 0 0 162.252 9.3 A 3.687 3.687 0 0 0 162.525 9.29 A 3.031 3.031 0 0 0 163.842 8.892 Q 164.544 8.484 164.952 7.746 A 3.151 3.151 0 0 0 165.27 6.889 A 4.102 4.102 0 0 0 165.36 6.012 A 4.145 4.145 0 0 0 165.302 5.303 A 3.095 3.095 0 0 0 164.946 4.29 Q 164.532 3.564 163.83 3.168 A 2.982 2.982 0 0 0 163.273 2.925 A 3.329 3.329 0 0 0 162.252 2.772 A 3.759 3.759 0 0 0 162.062 2.777 A 3.14 3.14 0 0 0 160.668 3.168 Q 159.96 3.564 159.552 4.296 Q 159.144 5.028 159.144 6.036 A 4.178 4.178 0 0 0 159.176 6.558 A 3.294 3.294 0 0 0 159.546 7.734 Q 159.948 8.472 160.656 8.886 A 2.947 2.947 0 0 0 161.215 9.139 Z M 77.844 9.156 L 76.764 9.156 L 76.764 2.916 L 77.844 2.916 L 77.844 9.156 Z M 50.964 8.34 A 2.249 2.249 0 0 0 51.591 8.257 A 1.68 1.68 0 0 0 52.44 7.698 A 2.256 2.256 0 0 0 52.898 6.727 A 3.253 3.253 0 0 0 52.968 6.036 A 2.565 2.565 0 0 0 52.821 5.162 A 2.402 2.402 0 0 0 52.704 4.89 A 2.304 2.304 0 0 0 52.203 4.222 A 2.18 2.18 0 0 0 51.99 4.05 Q 51.54 3.732 50.964 3.732 Q 50.016 3.732 49.488 4.356 Q 48.98 4.956 48.961 5.934 A 3.944 3.944 0 0 0 48.96 6.012 Q 48.96 6.636 49.224 7.17 A 2.332 2.332 0 0 0 49.648 7.775 A 2.115 2.115 0 0 0 49.938 8.022 Q 50.388 8.34 50.964 8.34 Z M 162.252 8.34 A 2.249 2.249 0 0 0 162.879 8.257 A 1.68 1.68 0 0 0 163.728 7.698 A 2.256 2.256 0 0 0 164.186 6.727 A 3.253 3.253 0 0 0 164.256 6.036 A 2.565 2.565 0 0 0 164.109 5.162 A 2.402 2.402 0 0 0 163.992 4.89 A 2.304 2.304 0 0 0 163.491 4.222 A 2.18 2.18 0 0 0 163.278 4.05 Q 162.828 3.732 162.252 3.732 Q 161.304 3.732 160.776 4.356 Q 160.268 4.956 160.249 5.934 A 3.944 3.944 0 0 0 160.248 6.012 Q 160.248 6.636 160.512 7.17 A 2.332 2.332 0 0 0 160.936 7.775 A 2.115 2.115 0 0 0 161.226 8.022 Q 161.676 8.34 162.252 8.34 Z M 18.66 7.56 L 18.66 4.212 Q 18.336 3.984 17.946 3.846 Q 17.556 3.708 17.124 3.708 Q 16.548 3.708 16.11 4.002 A 1.956 1.956 0 0 0 15.508 4.653 A 2.396 2.396 0 0 0 15.42 4.818 Q 15.168 5.34 15.168 6.036 Q 15.168 6.708 15.42 7.23 A 2.112 2.112 0 0 0 15.793 7.776 A 1.884 1.884 0 0 0 16.116 8.046 Q 16.56 8.34 17.112 8.34 Q 17.568 8.34 17.976 8.118 A 2.334 2.334 0 0 0 18.542 7.692 A 2.168 2.168 0 0 0 18.66 7.56 Z M 130.896 7.56 L 130.896 4.212 Q 130.572 3.984 130.182 3.846 Q 129.792 3.708 129.36 3.708 Q 128.784 3.708 128.346 4.002 A 1.956 1.956 0 0 0 127.744 4.653 A 2.396 2.396 0 0 0 127.656 4.818 Q 127.404 5.34 127.404 6.036 Q 127.404 6.708 127.656 7.23 A 2.112 2.112 0 0 0 128.029 7.776 A 1.884 1.884 0 0 0 128.352 8.046 Q 128.796 8.34 129.348 8.34 Q 129.804 8.34 130.212 8.118 A 2.334 2.334 0 0 0 130.778 7.692 A 2.168 2.168 0 0 0 130.896 7.56 Z M 123.612 7.584 L 123.612 4.488 Q 123.384 4.2 122.976 3.954 Q 122.568 3.708 122.076 3.708 A 1.794 1.794 0 0 0 121.481 3.804 A 1.606 1.606 0 0 0 121.068 4.02 A 2.003 2.003 0 0 0 120.448 4.758 A 2.391 2.391 0 0 0 120.402 4.854 Q 120.168 5.376 120.168 6.036 A 2.971 2.971 0 0 0 120.239 6.698 A 2.439 2.439 0 0 0 120.42 7.218 A 2.185 2.185 0 0 0 120.785 7.76 A 1.935 1.935 0 0 0 121.11 8.04 Q 121.548 8.34 122.088 8.34 Q 122.532 8.34 122.934 8.13 Q 123.336 7.92 123.612 7.584 Z M 170.928 7.584 L 170.928 4.488 Q 170.7 4.2 170.292 3.954 Q 169.884 3.708 169.392 3.708 A 1.794 1.794 0 0 0 168.797 3.804 A 1.606 1.606 0 0 0 168.384 4.02 A 2.003 2.003 0 0 0 167.764 4.758 A 2.391 2.391 0 0 0 167.718 4.854 Q 167.484 5.376 167.484 6.036 A 2.971 2.971 0 0 0 167.555 6.698 A 2.439 2.439 0 0 0 167.736 7.218 A 2.185 2.185 0 0 0 168.101 7.76 A 1.935 1.935 0 0 0 168.426 8.04 Q 168.864 8.34 169.404 8.34 Q 169.848 8.34 170.25 8.13 Q 170.652 7.92 170.928 7.584 Z M 90.948 7.476 L 90.948 4.212 Q 90.688 4.023 90.324 3.869 A 4.314 4.314 0 0 0 90.312 3.864 A 1.95 1.95 0 0 0 89.856 3.738 A 2.656 2.656 0 0 0 89.448 3.708 Q 88.956 3.708 88.524 3.972 A 1.888 1.888 0 0 0 87.948 4.527 A 2.354 2.354 0 0 0 87.822 4.734 Q 87.568 5.203 87.553 5.868 A 3.738 3.738 0 0 0 87.552 5.952 A 2.918 2.918 0 0 0 87.609 6.544 A 2.197 2.197 0 0 0 87.822 7.14 A 2.229 2.229 0 0 0 88.171 7.629 A 1.896 1.896 0 0 0 88.524 7.92 Q 88.956 8.196 89.46 8.196 A 1.833 1.833 0 0 0 90.009 8.116 A 1.633 1.633 0 0 0 90.324 7.98 A 2.503 2.503 0 0 0 90.682 7.738 A 1.957 1.957 0 0 0 90.948 7.476 Z M 110.028 5.604 L 113.448 5.604 A 2.923 2.923 0 0 0 113.399 5.054 Q 113.34 4.744 113.207 4.501 A 1.491 1.491 0 0 0 112.992 4.2 A 1.499 1.499 0 0 0 112.157 3.747 A 2.207 2.207 0 0 0 111.732 3.708 A 1.63 1.63 0 0 0 111.119 3.82 A 1.503 1.503 0 0 0 110.58 4.194 Q 110.2 4.599 110.07 5.306 A 3.842 3.842 0 0 0 110.028 5.604 Z M 174.708 5.604 L 178.128 5.604 A 2.923 2.923 0 0 0 178.079 5.054 Q 178.02 4.744 177.887 4.501 A 1.491 1.491 0 0 0 177.672 4.2 A 1.499 1.499 0 0 0 176.837 3.747 A 2.207 2.207 0 0 0 176.412 3.708 A 1.63 1.63 0 0 0 175.799 3.82 A 1.503 1.503 0 0 0 175.26 4.194 Q 174.88 4.599 174.75 5.306 A 3.842 3.842 0 0 0 174.708 5.604 Z M 185.004 9.3 Q 184.68 9.3 184.44 9.06 Q 184.2 8.82 184.2 8.496 A 1.035 1.035 0 0 1 184.228 8.249 A 0.711 0.711 0 0 1 184.416 7.908 Q 184.632 7.692 185.004 7.692 A 0.759 0.759 0 0 1 185.499 7.876 A 1.017 1.017 0 0 1 185.562 7.932 A 0.835 0.835 0 0 1 185.739 8.175 A 0.747 0.747 0 0 1 185.808 8.496 Q 185.808 8.856 185.58 9.078 A 0.775 0.775 0 0 1 185.079 9.297 A 1.033 1.033 0 0 1 185.004 9.3 Z M 185.004 4.38 Q 184.68 4.38 184.44 4.14 Q 184.2 3.9 184.2 3.576 A 1.035 1.035 0 0 1 184.228 3.329 A 0.711 0.711 0 0 1 184.416 2.988 Q 184.632 2.772 185.004 2.772 A 0.759 0.759 0 0 1 185.499 2.956 A 1.017 1.017 0 0 1 185.562 3.012 A 0.835 0.835 0 0 1 185.739 3.255 A 0.747 0.747 0 0 1 185.808 3.576 Q 185.808 3.936 185.58 4.158 A 0.775 0.775 0 0 1 185.079 4.377 A 1.033 1.033 0 0 1 185.004 4.38 Z M 76.78 1.631 A 0.717 0.717 0 0 0 77.304 1.848 A 0.981 0.981 0 0 0 77.484 1.832 A 0.678 0.678 0 0 0 77.856 1.638 A 0.693 0.693 0 0 0 78.027 1.342 A 0.901 0.901 0 0 0 78.06 1.092 Q 78.06 0.78 77.838 0.558 A 0.889 0.889 0 0 0 77.831 0.551 A 0.727 0.727 0 0 0 77.304 0.336 A 0.992 0.992 0 0 0 77.105 0.355 A 0.679 0.679 0 0 0 76.752 0.54 Q 76.548 0.744 76.548 1.092 A 0.719 0.719 0 0 0 76.607 1.382 A 0.797 0.797 0 0 0 76.77 1.62 A 0.896 0.896 0 0 0 76.78 1.631 Z" vector-effect="non-scaling-stroke"/></g></svg>