<svg width="120.246" height="10.444" viewBox="0 0 120.246 10.444" xmlns="http://www.w3.org/2000/svg"><g id="svgGroup" stroke-linecap="round" fill-rule="evenodd" font-size="9pt" stroke="#22272e" stroke-width="0.25mm" fill="#22272e" style="stroke:#22272e;stroke-width:0.25mm;fill:#22272e"><path d="M 93.38 5.138 L 93.38 10.304 L 93.072 10.304 L 93.072 5.166 A 3.885 3.885 0 0 0 93.035 4.61 Q 92.952 4.041 92.687 3.689 A 1.252 1.252 0 0 0 91.804 3.192 A 1.854 1.854 0 0 0 91.574 3.178 Q 90.461 3.178 89.583 4.354 A 5.787 5.787 0 0 0 89.208 4.928 L 89.208 10.304 L 88.9 10.304 L 88.9 5.138 A 3.844 3.844 0 0 0 88.864 4.59 Q 88.823 4.31 88.738 4.083 A 1.605 1.605 0 0 0 88.522 3.682 A 1.225 1.225 0 0 0 87.714 3.203 A 1.866 1.866 0 0 0 87.402 3.178 A 2.097 2.097 0 0 0 86.071 3.67 Q 85.746 3.929 85.447 4.324 A 5.778 5.778 0 0 0 85.05 4.928 L 85.05 10.304 L 84.742 10.304 L 84.742 3.038 L 85.008 3.038 L 85.036 4.508 Q 85.484 3.752 86.1 3.325 A 2.39 2.39 0 0 1 86.861 2.968 A 2.192 2.192 0 0 1 87.416 2.898 A 2.132 2.132 0 0 1 87.93 2.957 A 1.485 1.485 0 0 1 88.62 3.332 A 1.73 1.73 0 0 1 89.014 3.925 Q 89.13 4.209 89.18 4.564 A 4.757 4.757 0 0 1 89.64 3.909 A 3.498 3.498 0 0 1 90.244 3.339 Q 90.846 2.898 91.574 2.898 A 2.043 2.043 0 0 1 92.141 2.972 A 1.489 1.489 0 0 1 92.911 3.486 A 1.964 1.964 0 0 1 93.248 4.142 Q 93.334 4.425 93.364 4.765 A 4.271 4.271 0 0 1 93.38 5.138 Z M 26.138 5.138 L 26.138 10.304 L 25.83 10.304 L 25.83 5.166 A 3.524 3.524 0 0 0 25.76 4.428 Q 25.491 3.178 24.192 3.178 A 2.658 2.658 0 0 0 23.336 3.312 A 2.355 2.355 0 0 0 22.722 3.626 Q 22.092 4.074 21.532 4.928 L 21.532 10.304 L 21.224 10.304 L 21.224 3.038 L 21.49 3.038 L 21.518 4.522 A 4.583 4.583 0 0 1 22.229 3.683 A 2.837 2.837 0 0 1 24.192 2.898 A 2.655 2.655 0 0 1 24.756 2.954 Q 25.11 3.031 25.373 3.214 A 1.454 1.454 0 0 1 25.655 3.472 A 1.855 1.855 0 0 1 25.994 4.099 Q 26.083 4.372 26.117 4.703 A 4.253 4.253 0 0 1 26.138 5.138 Z M 46.256 5.138 L 46.256 10.304 L 45.948 10.304 L 45.948 5.166 A 3.524 3.524 0 0 0 45.878 4.428 Q 45.609 3.178 44.31 3.178 A 2.658 2.658 0 0 0 43.454 3.312 A 2.355 2.355 0 0 0 42.84 3.626 Q 42.21 4.074 41.65 4.928 L 41.65 10.304 L 41.342 10.304 L 41.342 3.038 L 41.608 3.038 L 41.636 4.522 A 4.583 4.583 0 0 1 42.347 3.683 A 2.837 2.837 0 0 1 44.31 2.898 A 2.655 2.655 0 0 1 44.874 2.954 Q 45.228 3.031 45.491 3.214 A 1.454 1.454 0 0 1 45.773 3.472 A 1.855 1.855 0 0 1 46.112 4.099 Q 46.201 4.372 46.235 4.703 A 4.253 4.253 0 0 1 46.256 5.138 Z M 12.866 3.038 L 12.866 10.304 L 12.586 10.304 L 12.586 8.82 Q 12.18 9.562 11.55 10.003 A 2.44 2.44 0 0 1 10.366 10.43 A 3.091 3.091 0 0 1 10.066 10.444 A 2.618 2.618 0 0 1 9.452 10.376 A 1.756 1.756 0 0 1 8.561 9.87 Q 8.022 9.296 8.022 8.218 L 8.022 3.038 L 8.33 3.038 L 8.33 8.19 A 3.378 3.378 0 0 0 8.37 8.729 Q 8.417 9.017 8.518 9.248 A 1.47 1.47 0 0 0 8.785 9.66 A 1.461 1.461 0 0 0 9.482 10.072 Q 9.762 10.15 10.108 10.15 A 2.392 2.392 0 0 0 10.942 10.008 A 2.178 2.178 0 0 0 11.501 9.702 A 3.455 3.455 0 0 0 12.092 9.128 Q 12.324 8.845 12.531 8.49 A 5.837 5.837 0 0 0 12.558 8.442 L 12.558 3.038 L 12.866 3.038 Z M 58.044 0 L 58.352 0.042 L 58.352 10.304 L 58.086 10.304 L 58.044 9.058 Q 57.342 10.346 55.962 10.437 A 3.246 3.246 0 0 1 55.748 10.444 A 2.432 2.432 0 0 1 54.735 10.238 Q 54.186 9.99 53.788 9.443 A 3.475 3.475 0 0 1 53.272 8.361 Q 53.06 7.635 53.06 6.692 A 6.375 6.375 0 0 1 53.134 5.699 A 4.743 4.743 0 0 1 53.396 4.711 Q 53.732 3.85 54.376 3.374 A 2.434 2.434 0 0 1 55.714 2.903 A 3.047 3.047 0 0 1 55.888 2.898 Q 57.186 2.898 57.944 3.918 A 3.226 3.226 0 0 1 58.044 4.06 L 58.044 0 Z M 108.878 0 L 109.186 0.042 L 109.186 10.304 L 108.92 10.304 L 108.878 9.058 Q 108.176 10.346 106.796 10.437 A 3.246 3.246 0 0 1 106.582 10.444 A 2.432 2.432 0 0 1 105.569 10.238 Q 105.02 9.99 104.622 9.443 A 3.475 3.475 0 0 1 104.106 8.361 Q 103.894 7.635 103.894 6.692 A 6.375 6.375 0 0 1 103.968 5.699 A 4.743 4.743 0 0 1 104.23 4.711 Q 104.566 3.85 105.21 3.374 A 2.434 2.434 0 0 1 106.548 2.903 A 3.047 3.047 0 0 1 106.722 2.898 Q 108.02 2.898 108.778 3.918 A 3.226 3.226 0 0 1 108.878 4.06 L 108.878 0 Z M 66.402 10.22 L 66.318 10.444 A 1.418 1.418 0 0 1 66.026 10.314 A 0.981 0.981 0 0 1 65.688 9.989 Q 65.492 9.674 65.478 9.03 Q 64.72 10.372 63.269 10.44 A 3.352 3.352 0 0 1 63.112 10.444 A 2.861 2.861 0 0 1 62.448 10.371 A 1.912 1.912 0 0 1 61.509 9.856 A 1.97 1.97 0 0 1 60.974 8.808 A 2.816 2.816 0 0 1 60.928 8.288 A 2.476 2.476 0 0 1 61.032 7.552 A 1.91 1.91 0 0 1 61.698 6.594 A 2.656 2.656 0 0 1 62.629 6.136 Q 63.141 5.992 63.784 5.992 L 65.436 5.992 L 65.436 5.124 A 3.583 3.583 0 0 0 65.398 4.586 Q 65.309 4.001 65.009 3.661 A 1.254 1.254 0 0 0 64.524 3.331 Q 64.321 3.25 64.065 3.212 A 3.342 3.342 0 0 0 63.574 3.178 A 4.076 4.076 0 0 0 62.757 3.266 Q 62.375 3.345 61.958 3.492 A 8.005 8.005 0 0 0 61.572 3.64 L 61.474 3.374 Q 62.468 2.962 63.314 2.907 A 3.976 3.976 0 0 1 63.574 2.898 Q 64.262 2.898 64.724 3.102 A 1.519 1.519 0 0 1 65.226 3.451 Q 65.744 4.004 65.744 5.096 L 65.744 8.764 A 5.559 5.559 0 0 0 65.753 9.096 Q 65.773 9.421 65.834 9.631 A 1.012 1.012 0 0 0 65.891 9.786 A 0.805 0.805 0 0 0 66.281 10.17 A 1.11 1.11 0 0 0 66.402 10.22 Z M 0 0.77 L 6.258 0.77 L 6.202 1.078 L 3.262 1.078 L 3.262 10.304 L 2.94 10.304 L 2.94 1.078 L 0 1.078 L 0 0.77 Z M 117.264 6.86 L 112.182 6.86 A 6.372 6.372 0 0 0 112.278 7.792 Q 112.366 8.268 112.529 8.649 A 2.696 2.696 0 0 0 112.931 9.317 A 2.229 2.229 0 0 0 114.549 10.143 A 2.928 2.928 0 0 0 114.758 10.15 A 3.411 3.411 0 0 0 115.303 10.108 A 2.516 2.516 0 0 0 115.843 9.961 Q 116.312 9.772 116.816 9.352 L 116.984 9.59 A 4.417 4.417 0 0 1 116.41 9.998 A 3.558 3.558 0 0 1 115.955 10.227 A 2.819 2.819 0 0 1 115.261 10.411 A 3.678 3.678 0 0 1 114.758 10.444 A 2.911 2.911 0 0 1 113.767 10.282 A 2.509 2.509 0 0 1 112.644 9.464 A 3.297 3.297 0 0 1 112.069 8.337 Q 111.86 7.638 111.86 6.734 A 6.806 6.806 0 0 1 111.926 5.764 Q 112.01 5.178 112.203 4.69 A 3.499 3.499 0 0 1 112.558 4.008 A 2.616 2.616 0 0 1 113.176 3.36 Q 113.806 2.898 114.646 2.898 A 2.914 2.914 0 0 1 115.467 3.007 A 2.131 2.131 0 0 1 116.62 3.822 Q 117.182 4.595 117.274 5.828 A 6.727 6.727 0 0 1 117.292 6.328 A 4.393 4.393 0 0 1 117.288 6.508 Q 117.284 6.608 117.276 6.72 A 8.538 8.538 0 0 1 117.264 6.86 Z M 19.334 2.982 L 19.264 3.248 A 2.88 2.88 0 0 0 18.663 3.178 A 3.2 3.2 0 0 0 18.62 3.178 A 1.876 1.876 0 0 0 17.978 3.284 A 1.637 1.637 0 0 0 17.318 3.731 A 2.657 2.657 0 0 0 16.99 4.188 Q 16.713 4.665 16.494 5.387 A 9.262 9.262 0 0 0 16.464 5.488 L 16.464 10.304 L 16.156 10.304 L 16.156 3.038 L 16.422 3.038 L 16.436 4.844 Q 16.638 4.183 16.934 3.753 A 2.145 2.145 0 0 1 17.269 3.367 Q 17.794 2.898 18.62 2.898 A 3.037 3.037 0 0 1 19.158 2.944 A 2.682 2.682 0 0 1 19.334 2.982 Z M 72.226 2.982 L 72.156 3.248 A 2.88 2.88 0 0 0 71.555 3.178 A 3.2 3.2 0 0 0 71.512 3.178 A 1.876 1.876 0 0 0 70.87 3.284 A 1.637 1.637 0 0 0 70.21 3.731 A 2.657 2.657 0 0 0 69.882 4.188 Q 69.605 4.665 69.386 5.387 A 9.262 9.262 0 0 0 69.356 5.488 L 69.356 10.304 L 69.048 10.304 L 69.048 3.038 L 69.314 3.038 L 69.328 4.844 Q 69.53 4.183 69.826 3.753 A 2.145 2.145 0 0 1 70.161 3.367 Q 70.686 2.898 71.512 2.898 A 3.037 3.037 0 0 1 72.05 2.944 A 2.682 2.682 0 0 1 72.226 2.982 Z M 36.747 3.046 A 2.988 2.988 0 0 0 35.784 2.898 A 3.314 3.314 0 0 0 35.5 2.91 A 2.525 2.525 0 0 0 33.663 3.899 A 3.15 3.15 0 0 0 33.278 4.529 Q 32.872 5.404 32.872 6.678 A 7.232 7.232 0 0 0 32.895 7.261 Q 33.004 8.614 33.642 9.443 A 2.452 2.452 0 0 0 34.799 10.291 A 2.95 2.95 0 0 0 35.77 10.444 A 3.347 3.347 0 0 0 36.067 10.431 A 2.508 2.508 0 0 0 37.898 9.436 Q 38.425 8.759 38.598 7.728 A 6.613 6.613 0 0 0 38.682 6.636 A 7.181 7.181 0 0 0 38.649 5.935 Q 38.595 5.38 38.45 4.921 A 3.218 3.218 0 0 0 37.905 3.871 A 2.477 2.477 0 0 0 36.747 3.046 Z M 99.859 3.046 A 2.988 2.988 0 0 0 98.896 2.898 A 3.314 3.314 0 0 0 98.612 2.91 A 2.525 2.525 0 0 0 96.775 3.899 A 3.15 3.15 0 0 0 96.39 4.529 Q 95.984 5.404 95.984 6.678 A 7.232 7.232 0 0 0 96.007 7.261 Q 96.116 8.614 96.754 9.443 A 2.452 2.452 0 0 0 97.911 10.291 A 2.95 2.95 0 0 0 98.882 10.444 A 3.347 3.347 0 0 0 99.179 10.431 A 2.508 2.508 0 0 0 101.01 9.436 Q 101.537 8.759 101.71 7.728 A 6.613 6.613 0 0 0 101.794 6.636 A 7.181 7.181 0 0 0 101.761 5.935 Q 101.707 5.38 101.562 4.921 A 3.218 3.218 0 0 0 101.017 3.871 A 2.477 2.477 0 0 0 99.859 3.046 Z M 77.952 3.038 L 78.344 3.038 L 74.9 6.328 L 78.694 10.304 L 78.316 10.304 L 74.508 6.328 L 77.952 3.038 Z M 74.116 0.042 L 74.424 0 L 74.424 10.304 L 74.116 10.304 L 74.116 0.042 Z M 35.784 3.178 A 2.552 2.552 0 0 0 34.89 3.328 A 2.217 2.217 0 0 0 33.887 4.088 A 3.038 3.038 0 0 0 33.413 5.032 Q 33.194 5.733 33.194 6.678 Q 33.194 7.793 33.503 8.57 A 2.919 2.919 0 0 0 33.873 9.24 A 2.179 2.179 0 0 0 35.465 10.135 A 3.002 3.002 0 0 0 35.77 10.15 A 2.552 2.552 0 0 0 36.664 10 A 2.217 2.217 0 0 0 37.667 9.24 A 3.022 3.022 0 0 0 38.135 8.313 Q 38.36 7.602 38.36 6.636 Q 38.36 4.984 37.681 4.081 A 2.184 2.184 0 0 0 36.081 3.192 A 3.031 3.031 0 0 0 35.784 3.178 Z M 98.896 3.178 A 2.552 2.552 0 0 0 98.002 3.328 A 2.217 2.217 0 0 0 96.999 4.088 A 3.038 3.038 0 0 0 96.525 5.032 Q 96.306 5.733 96.306 6.678 Q 96.306 7.793 96.615 8.57 A 2.919 2.919 0 0 0 96.985 9.24 A 2.179 2.179 0 0 0 98.577 10.135 A 3.002 3.002 0 0 0 98.882 10.15 A 2.552 2.552 0 0 0 99.776 10 A 2.217 2.217 0 0 0 100.779 9.24 A 3.022 3.022 0 0 0 101.247 8.313 Q 101.472 7.602 101.472 6.636 Q 101.472 4.984 100.793 4.081 A 2.184 2.184 0 0 0 99.193 3.192 A 3.031 3.031 0 0 0 98.896 3.178 Z M 58.044 8.582 L 58.044 4.452 Q 57.232 3.178 55.902 3.178 A 2.261 2.261 0 0 0 55.048 3.337 A 2.131 2.131 0 0 0 54.572 3.605 Q 53.998 4.032 53.69 4.83 A 4.422 4.422 0 0 0 53.45 5.751 Q 53.382 6.192 53.382 6.692 Q 53.382 7.785 53.665 8.553 A 3.001 3.001 0 0 0 54.019 9.24 Q 54.628 10.109 55.664 10.148 A 2.614 2.614 0 0 0 55.762 10.15 Q 56.574 10.15 57.113 9.751 A 2.695 2.695 0 0 0 57.615 9.259 Q 57.804 9.022 57.969 8.723 A 4.779 4.779 0 0 0 58.044 8.582 Z M 108.878 8.582 L 108.878 4.452 Q 108.066 3.178 106.736 3.178 A 2.261 2.261 0 0 0 105.882 3.337 A 2.131 2.131 0 0 0 105.406 3.605 Q 104.832 4.032 104.524 4.83 A 4.422 4.422 0 0 0 104.284 5.751 Q 104.216 6.192 104.216 6.692 Q 104.216 7.785 104.499 8.553 A 3.001 3.001 0 0 0 104.853 9.24 Q 105.462 10.109 106.498 10.148 A 2.614 2.614 0 0 0 106.596 10.15 Q 107.408 10.15 107.947 9.751 A 2.695 2.695 0 0 0 108.449 9.259 Q 108.638 9.022 108.803 8.723 A 4.779 4.779 0 0 0 108.878 8.582 Z M 116.984 6.594 L 116.984 6.216 A 5.379 5.379 0 0 0 116.915 5.329 Q 116.834 4.843 116.656 4.449 A 2.72 2.72 0 0 0 116.403 4.004 A 1.891 1.891 0 0 0 115.023 3.199 A 2.848 2.848 0 0 0 114.674 3.178 Q 113.582 3.178 112.896 4.053 Q 112.377 4.715 112.235 5.828 A 6.963 6.963 0 0 0 112.182 6.594 L 116.984 6.594 Z M 119.756 0.77 L 120.05 0.77 L 120.05 7.476 L 119.756 7.476 L 119.756 0.77 Z M 65.436 8.638 L 65.436 6.272 L 63.84 6.272 Q 62.987 6.272 62.399 6.526 A 2.154 2.154 0 0 0 61.943 6.79 A 1.683 1.683 0 0 0 61.286 7.951 A 2.502 2.502 0 0 0 61.264 8.288 Q 61.264 9.156 61.761 9.653 A 1.652 1.652 0 0 0 62.607 10.1 A 2.43 2.43 0 0 0 63.112 10.15 Q 63.938 10.15 64.498 9.765 Q 65.058 9.38 65.436 8.638 Z M 120.016 9.785 A 0.421 0.421 0 0 0 119.91 9.772 A 0.411 0.411 0 0 0 119.884 9.773 A 0.307 0.307 0 0 0 119.679 9.863 A 0.299 0.299 0 0 0 119.601 10.002 A 0.421 0.421 0 0 0 119.588 10.108 A 0.304 0.304 0 0 0 119.605 10.212 A 0.307 0.307 0 0 0 119.679 10.325 Q 119.77 10.416 119.91 10.416 A 0.44 0.44 0 0 0 119.994 10.408 A 0.304 0.304 0 0 0 120.155 10.325 A 0.369 0.369 0 0 0 120.158 10.322 A 0.296 0.296 0 0 0 120.246 10.108 A 0.44 0.44 0 0 0 120.238 10.024 A 0.304 0.304 0 0 0 120.155 9.863 A 0.299 0.299 0 0 0 120.016 9.785 Z" vector-effect="non-scaling-stroke"/></g></svg>